HIERARCHY
ROOT Hips
{
	OFFSET -14.64140 90.27770 -84.91600
	CHANNELS 6 Xposition Yposition Zposition Zrotation Xrotation Yrotation
	JOINT Spine
	{
		OFFSET 0.00000 13.20850 -1.60436
		CHANNELS 3 Zrotation Xrotation Yrotation
		JOINT Spine1
		{
			OFFSET 0.00000 8.61716 0.00000
			CHANNELS 3 Zrotation Xrotation Yrotation
			JOINT Spine2
			{
				OFFSET 0.00000 8.61717 0.00000
				CHANNELS 3 Zrotation Xrotation Yrotation
				JOINT Spine3
				{
					OFFSET 0.00000 8.61717 0.00000
					CHANNELS 3 Zrotation Xrotation Yrotation
					JOINT Neck
					{
						OFFSET 0.00000 11.07920 1.10792
						CHANNELS 3 Zrotation Xrotation Yrotation
						JOINT Neck1
						{
							OFFSET 0.00000 7.08032 0.00000
							CHANNELS 3 Zrotation Xrotation Yrotation
							JOINT Head
							{
								OFFSET 0.00000 7.08031 0.00000
								CHANNELS 3 Zrotation Xrotation Yrotation
								End site
								{
									OFFSET 0.00000 0.00000 0.00000
								}
							}
						}
					}
					JOINT RightShoulder
					{
						OFFSET -0.01000 7.91373 5.19711
						CHANNELS 3 Zrotation Xrotation Yrotation
						JOINT RightArm
						{
							OFFSET -18.41580 0.00000 0.00000
							CHANNELS 3 Zrotation Xrotation Yrotation
							JOINT RightForeArm
							{
								OFFSET -29.11090 0.00000 0.00000
								CHANNELS 3 Zrotation Xrotation Yrotation
								JOINT RightHand
								{
									OFFSET -24.65040 0.00000 0.00000
									CHANNELS 3 Zrotation Xrotation Yrotation
									JOINT RightHandThumb1
									{
										OFFSET -5.35114 -0.85590 3.97906
										CHANNELS 3 Zrotation Xrotation Yrotation
										JOINT RightHandThumb2
										{
											OFFSET -4.52789 0.00000 0.00000
											CHANNELS 3 Zrotation Xrotation Yrotation
											JOINT RightHandThumb3
											{
												OFFSET -2.46976 0.00000 0.00000
												CHANNELS 3 Zrotation Xrotation Yrotation
												End site
												{
													OFFSET 0.00000 0.00000 0.00000
												}
											}
										}
									}
									JOINT RightHandIndex1
									{
										OFFSET -14.26970 0.00000 2.88139
										CHANNELS 3 Zrotation Xrotation Yrotation
										JOINT RightHandIndex2
										{
											OFFSET -5.48836 0.00000 0.00000
											CHANNELS 3 Zrotation Xrotation Yrotation
											JOINT RightHandIndex3
											{
												OFFSET -3.01859 0.00000 0.00000
												CHANNELS 3 Zrotation Xrotation Yrotation
												End site
												{
													OFFSET 0.00000 0.00000 0.00000
												}
											}
										}
									}
									JOINT RightHandMiddle1
									{
										OFFSET -14.26970 0.00000 -0.09147
										CHANNELS 3 Zrotation Xrotation Yrotation
										JOINT RightHandMiddle2
										{
											OFFSET -6.17441 0.00000 0.00000
											CHANNELS 3 Zrotation Xrotation Yrotation
											JOINT RightHandMiddle3
											{
												OFFSET -3.56743 0.00000 0.00000
												CHANNELS 3 Zrotation Xrotation Yrotation
												End site
												{
													OFFSET 0.00000 0.00000 0.00000
												}
											}
										}
									}
									JOINT RightHandRing1
									{
										OFFSET -12.69180 0.00000 -3.06433
										CHANNELS 3 Zrotation Xrotation Yrotation
										JOINT RightHandRing2
										{
											OFFSET -5.62556 0.00000 0.00000
											CHANNELS 3 Zrotation Xrotation Yrotation
											JOINT RightHandRing3
											{
												OFFSET -3.56744 0.00000 0.00000
												CHANNELS 3 Zrotation Xrotation Yrotation
												End site
												{
													OFFSET 0.00000 0.00000 0.00000
												}
											}
										}
									}
									JOINT RightHandPinky1
									{
										OFFSET -11.11390 0.00000 -6.03719
										CHANNELS 3 Zrotation Xrotation Yrotation
										JOINT RightHandPinky2
										{
											OFFSET -4.52789 0.00000 0.00000
											CHANNELS 3 Zrotation Xrotation Yrotation
											JOINT RightHandPinky3
											{
												OFFSET -2.46976 0.00000 0.00000
												CHANNELS 3 Zrotation Xrotation Yrotation
												End site
												{
													OFFSET 0.00000 0.00000 0.00000
												}
											}
										}
									}
								}
							}
						}
					}
					JOINT LeftShoulder
					{
						OFFSET 0.01000 7.91373 5.19711
						CHANNELS 3 Zrotation Xrotation Yrotation
						JOINT LeftArm
						{
							OFFSET 18.41580 0.00000 0.00000
							CHANNELS 3 Zrotation Xrotation Yrotation
							JOINT LeftForeArm
							{
								OFFSET 29.11090 0.00000 0.00000
								CHANNELS 3 Zrotation Xrotation Yrotation
								JOINT LeftHand
								{
									OFFSET 24.65040 0.00000 0.00000
									CHANNELS 3 Zrotation Xrotation Yrotation
									JOINT LeftHandThumb1
									{
										OFFSET 5.35114 -0.85590 3.97906
										CHANNELS 3 Zrotation Xrotation Yrotation
										JOINT LeftHandThumb2
										{
											OFFSET 4.52789 0.00000 0.00000
											CHANNELS 3 Zrotation Xrotation Yrotation
											JOINT LeftHandThumb3
											{
												OFFSET 2.46977 0.00000 0.00000
												CHANNELS 3 Zrotation Xrotation Yrotation
												End site
												{
													OFFSET 0.00000 0.00000 0.00000
												}
											}
										}
									}
									JOINT LeftHandIndex1
									{
										OFFSET 14.26970 0.00000 2.88139
										CHANNELS 3 Zrotation Xrotation Yrotation
										JOINT LeftHandIndex2
										{
											OFFSET 5.48836 0.00000 0.00000
											CHANNELS 3 Zrotation Xrotation Yrotation
											JOINT LeftHandIndex3
											{
												OFFSET 3.01859 0.00000 0.00000
												CHANNELS 3 Zrotation Xrotation Yrotation
												End site
												{
													OFFSET 0.00000 0.00000 0.00000
												}
											}
										}
									}
									JOINT LeftHandMiddle1
									{
										OFFSET 14.26970 0.00000 -0.09147
										CHANNELS 3 Zrotation Xrotation Yrotation
										JOINT LeftHandMiddle2
										{
											OFFSET 6.17440 0.00000 0.00000
											CHANNELS 3 Zrotation Xrotation Yrotation
											JOINT LeftHandMiddle3
											{
												OFFSET 3.56744 0.00000 0.00000
												CHANNELS 3 Zrotation Xrotation Yrotation
												End site
												{
													OFFSET 0.00000 0.00000 0.00000
												}
											}
										}
									}
									JOINT LeftHandRing1
									{
										OFFSET 12.69180 0.00000 -3.06433
										CHANNELS 3 Zrotation Xrotation Yrotation
										JOINT LeftHandRing2
										{
											OFFSET 5.62556 0.00000 0.00000
											CHANNELS 3 Zrotation Xrotation Yrotation
											JOINT LeftHandRing3
											{
												OFFSET 3.56744 0.00000 0.00000
												CHANNELS 3 Zrotation Xrotation Yrotation
												End site
												{
													OFFSET 0.00000 0.00000 0.00000
												}
											}
										}
									}
									JOINT LeftHandPinky1
									{
										OFFSET 11.11390 0.00000 -6.03719
										CHANNELS 3 Zrotation Xrotation Yrotation
										JOINT LeftHandPinky2
										{
											OFFSET 4.52789 0.00000 0.00000
											CHANNELS 3 Zrotation Xrotation Yrotation
											JOINT LeftHandPinky3
											{
												OFFSET 2.46976 0.00000 0.00000
												CHANNELS 3 Zrotation Xrotation Yrotation
												End site
												{
													OFFSET 0.00000 0.00000 0.00000
												}
											}
										}
									}
								}
							}
						}
					}
					JOINT pCube4
					{
						OFFSET 0.00000 10.91090 1.10792
						CHANNELS 3 Zrotation Xrotation Yrotation
						End site
						{
							OFFSET 0.00000 0.00000 0.00000
						}
					}
				}
			}
		}
	}
	JOINT RightUpLeg
	{
		OFFSET -9.98441 0.00000 0.00000
		CHANNELS 3 Zrotation Xrotation Yrotation
		JOINT RightLeg
		{
			OFFSET 0.00000 -42.11790 0.00000
			CHANNELS 3 Zrotation Xrotation Yrotation
			JOINT RightFoot
			{
				OFFSET 0.00000 -45.00020 -0.00001
				CHANNELS 3 Zrotation Xrotation Yrotation
				JOINT RightForeFoot
				{
					OFFSET 0.00000 -3.74820 0.00000
					CHANNELS 3 Zrotation Xrotation Yrotation
					JOINT RightToeBase
					{
						OFFSET 0.00000 0.06325 14.43120
						CHANNELS 3 Zrotation Xrotation Yrotation
						End site
						{
							OFFSET 0.00000 0.00000 0.00000
						}
					}
				}
			}
		}
	}
	JOINT LeftUpLeg
	{
		OFFSET 9.98441 0.00000 0.00000
		CHANNELS 3 Zrotation Xrotation Yrotation
		JOINT LeftLeg
		{
			OFFSET 0.00000 -42.11800 0.00000
			CHANNELS 3 Zrotation Xrotation Yrotation
			JOINT LeftFoot
			{
				OFFSET 0.00000 -45.00070 0.00000
				CHANNELS 3 Zrotation Xrotation Yrotation
				JOINT LeftForeFoot
				{
					OFFSET 0.00000 -3.74824 0.00000
					CHANNELS 3 Zrotation Xrotation Yrotation
					JOINT LeftToeBase
					{
						OFFSET 0.00000 0.06325 14.43110
						CHANNELS 3 Zrotation Xrotation Yrotation
						End site
						{
							OFFSET 0.00000 0.00000 0.00000
						}
					}
				}
			}
		}
	}
}
MOTION
Frames: 4
Frame Time: 0.050000
-0.0015283193178356514 0.034069152565105405 -0.00016541519434356338 0.013433498402287344 -0.008336268599169194 -0.024676778185753936 -3.8910510979075013 -0.26501419961862394 -0.641011126818108 -0.9528171479611844 3.508976750055474 0.3357713302709254 -1.4297347071122237 -2.3174389372079003 -0.8490379065903807 -0.47370614310796033 -0.018816881867055893 -0.7649181663653507 0.4228211430166561 12.793251417884637 0.16045253650386843 0.1669860895942812 -0.011264243129851963 -1.215194018635438 0.16718048651337347 -14.876508839038307 -0.05100237753970004 -6.936770403994588 2.4808146111754428 -13.778582166951931 68.50415297320406 0.1415412329475705 23.200664527792476 41.95285732186441 10.97204384536095 92.25705178043697 23.432968113265815 -0.4403315983757924 -5.4761898306303864 4.5445432112511766 -0.16076676445885085 -1.5454915642417473 -0.01561971128351565 0.007393692707187165 -56.24973449791244 0.0433357538474278 0.02909545528312495 -56.26280624174581 -38.80609676149482 -0.021398021613754314 -0.012028677304861991 -0.014017454796537834 -0.025838301527829476 0.025654787504065517 -0.020546617423521336 -0.02562323079176597 0.03292430211780312 -36.734942693514895 0.017288193701083057 -0.0357788191439018 -0.0485420167365725 0.02464759633192451 -0.045268340175318035 -0.03084588788844346 0.004204752752621317 -0.023973242098999217 -19.777297050353415 -0.026510314728985896 0.023086828664708785 -0.007666427847477285 0.029307230547034796 -0.0011178017491692734 0.004625218885734807 0.03228458113368311 0.0199388164050301 24.032706260695218 0.026903064800951452 0.0005619993444367332 28.83353075353488 0.015841045929782617 0.011154297097251053 28.886611479130213 -0.025487602367888548 0.04661220921658119 5.0719990865527125 1.288460260011565 11.529906095941758 -67.87631913432719 28.393100320333296 -7.182215208855558 -2.7426044790274218 -2.608036814013698 -49.04693160233086 -15.8430978103938 3.210790808977803 0.8494706893121748 -0.4503470882902929 0.07695202062227373 -8.106469063408491 -0.003358320789942867 -0.04394929129631536 44.60276595638215 -0.005039350847496366 0.021899829294415796 44.54360275032803 12.42082657458734 -0.04128419729000381 0.017778173087585898 -0.045306639225088395 0.04194529212198803 0.01519766940656113 -0.04527508659694618 0.00043136949112041655 -0.0397708794662594 11.097265699810828 0.0064572650909376856 -0.005456758488648976 0.041063983755146596 0.009948495594666772 -0.03709999434272224 0.005051301768951141 -0.032256566897401556 0.03569873754459482 4.801196858195391 0.030449378767880123 -0.023916712375896407 0.03973525970935961 0.029386070153382793 -0.028604126300978687 -0.011143191885371124 0.045357448547639505 0.029672505092626075 -5.601596523896635 -0.02001545463510196 -0.035403065087713854 -6.764520527329425 -0.004316012383891013 0.0012726294311884209 -6.687348400672485 -0.00028679116311693874 -0.03055945856489815 0.03141510166665751 0.013469621473042566 0.02727170501378191 8.01834291731273 3.5380833961974445 -19.194920275933498 0.0016257882665835313 10.348122594923128 -0.004441514792987013 -5.645984722042042 -15.659720905188369 3.1579654220706614 0.01580524682190851 -0.04578068186193502 0.019807618162657532 -0.03883855317148047 4.706195650741452 0.023507547005141637 12.450938634864544 -8.188929214071011 6.839015104167947 -0.04543552243371146 46.42263456399673 -0.029156291424185337 -4.309981594093911 -14.712265774153453 -3.855325660723968 0.01730820097222932 -0.005015784805293528 -0.015088969489450849 -0.001503290425506193 -10.717156133474893 -0.0033118873056856256 
0.04830098202932066 0.006390298133382904 0.036941407464088576 -0.017089158451696382 -0.011705854826538444 0.0499056366644644 -3.8743060420563964 -0.43092906209707466 -0.690778013008488 -0.9565900273942243 3.5267076705120606 0.41594267306524013 -1.3927336227805518 -2.32321494715982 -0.8717068655720102 -0.5139163663035198 0.05077923279326346 -0.8033954757124763 0.49115449261798705 12.755776503066674 0.060761344470458056 0.10227918680800685 -0.02237817812393305 -1.3586502226816106 0.1705967701189517 -14.871372328083888 -0.09687409703447439 -6.863497571376585 2.49131564685964 -13.923725075862661 68.07336733536442 -0.5553032817762774 22.34441711700981 43.10335414878204 11.042699703551559 91.6784624710943 23.009838300294874 -0.4124630052713799 -5.472862851749107 4.508786011539882 -0.1560267571004888 -1.6291745979095669 0.0021109750653666368 -0.007039037816905834 -56.196738227342976 -0.027908851534824884 0.04534349708984998 -56.24268682865634 -38.780303889208994 -0.04201897391716454 0.008341397840359725 -0.028181078093113723 0.007425907599046646 0.04650991197646922 -0.028717338314475635 -0.03672581083589432 0.018178468328954728 -36.72438071324509 0.0033670441897190075 -0.022097140657769927 -0.03469517898258923 0.00225574726918048 0.022646252278671876 -0.007311071865659692 -0.038407536901910504 0.007219559158549696 -19.800675165747815 0.03708869830383609 -0.00017756097157227874 0.0050711350745311756 -0.029096773397266663 0.013541651074451906 -0.04281901883334611 -0.0489836874428175 0.004875708342945819 24.056470419275968 -0.0009892367317435801 -0.012966892206019487 28.83690970993213 -0.02470698896943456 -0.009661529371736942 28.902682554395998 0.03988266299265542 0.047983763519070466 4.735169118267128 1.1842302850097797 11.68580103237622 -68.80457415520738 28.455488070961877 -5.602528983370611 -2.9353470028107513 -2.7448697180821227 -46.621228947076276 -15.529258331231022 3.9763117027193 0.3583398973924253 -0.4933058518514931 0.04111921326024562 -8.125291286830771 0.02460400739324228 -0.024926281983838595 44.567727649888624 -0.017374953707388868 -0.032908240901437034 44.5895375772599 12.450784879149188 -0.042801050710953456 -0.0183647873122634 0.03812076907678787 -0.008061275739765405 0.014319159054284904 -0.0060240340035525065 -0.00047650104748578196 -0.045927402259926794 11.089917898176033 -0.00563851653387829 0.024313575969422324 -0.03331043295409767 -0.0025712332263538957 -0.027945328872491546 -0.012481231030538937 -0.047815282387691 0.023896694961723947 4.822049715506433 -0.004895515754708409 -0.04082334906717903 0.03411420800328926 -0.022245904110655277 0.016647320250083416 -0.02688064855656651 0.003108060211791964 -0.019155519005354314 -5.608196605009845 -0.017279508824860512 0.02595971768297939 -6.694889485923645 -0.004972051233018015 0.02506514205005336 -6.738613209068003 -0.04364733318325003 -0.01714898704700001 0.008166702016328922 -0.0008698234275751638 -0.001242628457541747 8.090473518402963 3.4566954277701827 -19.238648931206146 -0.0434682259896991 10.40628763265055 -0.006852728606627563 -5.644025973181527 -15.673565183264873 3.187585493758313 -0.021315844671222176 0.020435365515272114 0.023323988085320737 0.03499958617463422 4.731265623928912 -0.0304587315259176 12.466946934878761 -8.278937124464335 6.899052685786585 -0.009309693065732424 46.37128011707146 0.015832078512476967 -4.299248204277988 -14.745415890149012 -3.8800292657329027 -0.04760955321457978 0.03505636266771728 0.018641819388677545 -0.03644862690305923 -10.721007134238338 -0.022268303371557528 
0.027939083737169836 -0.018180132429190966 0.032583175094470194 0.005761605307441859 -0.008901357436817385 -0.03914630060156164 -3.897199603478334 -0.5535121223879057 -0.6947829780148421 -0.926818422192197 3.4859570342519355 0.377622968679105 -1.41347261685065 -2.3162615089680028 -0.8909155126812092 -0.4597202791622199 0.07523637403912534 -0.8407943198569979 0.5186775094495351 12.740933604457075 0.04892806448221613 0.1353663200872386 0.017300662225274693 -1.5583252843349484 0.27501946151613244 -14.72165932081911 -0.16127336701472833 -6.7716354976078454 2.4628029293735203 -14.112408747014904 67.61084142347795 -1.323345789850304 21.451485611421038 43.46563992733894 11.160941682591515 91.03856492079248 22.66548150972619 -0.4002222291522839 -5.459432351136067 4.5360158514388855 -0.10624480111365758 -1.6175428163076213 0.009736675364120876 0.0047674863744239385 -56.268963018789854 -0.008312770027995246 -0.03252508888755293 -56.22167484171239 -38.78335177011304 -0.0030744524231785604 -0.03816086581818674 0.048319701831288545 0.021873975413834734 -0.020816464769971003 -0.01744615364704796 -0.028962238055007267 0.00043766872176670565 -36.69920396111493 0.005593027856123854 0.0028548671256470332 0.042923649971592995 -0.006401861990176627 0.008510009770181485 0.041704126163473236 0.03572521816524982 -0.036887444955416494 -19.751614176635144 0.00418785191445824 -0.04078187603459815 0.03649668663017988 -0.045969761626187704 -0.013176377955281026 -0.02923928641856469 0.026142552377525267 0.010664314061325364 24.005503330974772 -0.0015516708779206288 -0.025714295132178606 28.883621931979512 0.040453262148148546 -0.00038356763271098194 28.886825521681278 -0.030173478565323143 0.04644150296799074 4.429223712701638 1.1454227784787026 11.729752421704818 -69.11054765186363 28.487633950822712 -4.540530206916294 -3.0588930418086138 -2.852986162977735 -44.97881786963727 -15.321691843362675 4.3289614390426525 -0.029304451709957186 -0.5161285558805255 0.05922773278335521 -8.126378730816601 0.019487765756808124 0.011124127083515173 44.55273688630259 0.04291667809445953 -0.005458045642983318 44.60251689449645 12.45114076205779 -0.03433690040280268 -0.017478598932371688 -0.021117355831747283 -0.02088614378300561 0.028610454045763612 0.028639978779119925 0.0014301333533260248 -0.029919519888472385 11.104669243214726 -0.009748556207770813 -0.03287682880235851 -0.0129140116537225 0.025888285785316784 0.03271395135370991 0.01880567637933642 -0.03730288563198813 0.04502778922593707 4.790726545591097 -0.035803962073198824 0.0027948701362607215 -0.04814664412894725 -0.02617405542009503 0.005492107064889278 -0.015933342220862786 -0.025833319886340383 -0.040752985293023514 -5.590196488790091 -0.041760850390575976 0.020973237086071878 -6.698381405419644 0.006683000668766287 0.015602146871378083 -6.72196652088179 -0.021608949140911902 0.0007270167904211806 -0.0038423683979429578 0.004451641650569106 -0.004863822167378889 8.079345900565722 3.4947308347139683 -19.21550170967724 0.0016308764384452576 10.404668383377368 0.00804251884134276 -5.5865454748178776 -15.61366747341628 3.1750086353945415 -0.04002454973624773 0.01926960102927217 0.04170969276842577 -0.044469872818868404 4.651850047437309 0.006266753312791854 12.42307964220557 -8.273310041275018 6.925444100073964 -0.04965972640925586 46.396385599254344 -0.023460772652830045 -4.286102398739813 -14.732776957406731 -3.8323549449679657 -0.004432393667950343 0.036577400058844245 0.0343823607786501 0.004796528503141485 -10.719952142210424 0.02770128172578248 
-0.041264927744162155 0.016093908392971513 0.037938901743536195 -0.02269671420616941 -0.0333549034057632 0.014989876622267959 -3.8472056978145974 -0.6543914215257238 -0.6140269722966938 -0.9435071010948097 3.4913024730926816 0.33299990814972347 -1.4590364183562656 -2.322365047492847 -0.8330825018488786 -0.40235122562407455 0.00209548030906484 -0.7912914465473209 0.6277894147097258 12.75471871141484 -0.017734239697578688 0.16970776919450842 0.08104451755842931 -1.610248061852464 0.2975903677899118 -14.590474333447276 -0.10900472680174153 -6.738094302698394 2.4162437631844558 -14.181732756875324 67.02429968842698 -1.9353269077011783 20.732515254640514 42.76127133953751 10.974783754215602 90.35697663854725 22.27758840625077 -0.3602059637620767 -5.473518310819043 4.518783304610906 -0.11041220958547723 -1.5787275522237023 0.00492382683128379 0.002336864022701553 -56.220977962569215 4.0751925859364255e-06 -0.03531677772146595 -56.22142604370126 -38.803939488286396 -0.012371624252627151 -0.04539692437762517 -0.035679312558534085 -0.021013038526844476 -0.0359709263372699 -0.0426661125971738 -0.016598188581145305 -0.010820608768690248 -36.648739694485116 -0.04469039285495611 0.00212329089830697 -0.041462569649915494 -0.042088618811880064 0.034253675197305475 0.02443675650026047 -0.0387094093774048 -0.0244162473853928 -19.805485122435584 0.020358930490361943 -0.03155947208539028 -0.041900948880253766 -0.04051419671564833 0.03489967679627877 -0.002857419307744247 -0.002564621621797589 -0.04575919478416723 24.027818801906918 -0.04401996259322789 -0.03353469309520658 28.820265333459243 0.0036958037177803 -0.042223913874441535 28.88451608025298 0.018602804826842005 -0.038919402303509675 4.3232326553826566 1.1307391415490375 11.79066311546567 -69.17416671064065 28.275018013202327 -4.0457328412022475 -3.2771821610507095 -3.0991723664644177 -44.2822479693946 -14.981257138167743 4.390751353718433 -0.13597203124846463 -0.44335905034558565 0.05678984678758701 -8.161474219897961 0.006287147932934891 -0.04523820973354076 44.612379596850595 0.010045227261768866 0.021882998654244354 44.59338876026437 12.49857516230885 -0.021430716343271494 0.020189331098252054 0.021904775908510043 0.005807734185768481 -0.02451294054724398 0.04819390184863272 -0.04442830921157444 -0.030223006001746017 11.085999697929594 -0.041166004036272914 0.007027356658608232 0.007923774250738173 -0.0013933361232143363 0.03617952963885463 -0.03738183576513182 -0.021434198209594243 0.017365841623884333 4.788343834110019 0.015758839262245295 0.00855313650149291 -0.011797217595971339 -0.02118338991330495 -0.032905594507402706 -0.03260448568624936 0.009937673678067204 0.012541652059942369 -5.616532382784199 0.014959843630854426 -0.04742501932852931 -6.720199456075249 -0.042394453735389546 0.025596238733749232 -6.708853171370478 -0.0488449727951199 -0.010059005266215034 0.004060154681810324 -0.01877896582588508 -0.041990141683145014 7.9954036257635295 3.487187370954071 -19.212845527157018 -0.027182649989278218 10.424274899598647 0.051590968815784496 -5.619696138459782 -15.64241480582296 3.180204578820578 -0.04284907989439139 -0.019585162850225733 0.04302311919061801 0.032701341136116904 4.744866145091919 0.00440459791968674 12.471533783041949 -8.273428352275195 6.8576166966377485 -0.006158446700753595 46.35604320720595 -0.04485144853900197 -4.35602890623639 -14.750103025391857 -3.84691344604135 -0.026221783934404948 -5.015676074096066e-05 0.019717424304126138 -0.018766163549935346 -10.77223581469558 0.016407497890091927 
